<?xml version="1.0" encoding="utf-8"?>
<!-- Generator: Adobe Illustrator 19.2.1, SVG Export Plug-In . SVG Version: 6.00 Build 0)  -->
<svg version="1.1" id="Layer_1" xmlns="http://www.w3.org/2000/svg" xmlns:xlink="http://www.w3.org/1999/xlink" x="0px" y="0px"
	 viewBox="0 0 193.4 193.4" style="enable-background:new 0 0 193.4 193.4;" xml:space="preserve">
<style type="text/css">
	.st0{fill:#FFFFFF;}
</style>
<g>
	<g>
		<g>
			<path class="st0" d="M96.7,193.4C43.4,193.4,0,150,0,96.7S43.4,0,96.7,0s96.7,43.4,96.7,96.7S150,193.4,96.7,193.4z M96.7,10.8
				c-47.3,0-85.8,38.5-85.8,85.8s38.5,85.8,85.8,85.8s85.8-38.5,85.8-85.8C182.5,49.4,144,10.8,96.7,10.8z"/>
		</g>
		<path class="st0" d="M78,55.5c-3.9-6.4-11.3-10-20.7-10c-8.4,0-15.7,2.8-20.9,8.2l-1.1,1.1l6.5,8.4l1.4-1.5
			c4.6-4.8,11-5.5,14.4-5.5c4.6,0,7.6,1.5,9.3,4.4c1.5,2.5,1.1,5.6,1.1,8.3v0.4h-0.7c-7,0-15.7,0-22.8,2.5
			c-10.1,3.7-13.7,11.4-13.7,17.3c0,8.4,6.7,17.3,19.8,17.3c6.2,0,11.4-2,17.4-5.6v4.4h13V69.4C81.1,64.5,80.7,60,78,55.5z
			 M52.5,96.2c-6.4,0-9.5-3.9-9.5-7.7c0-1.6,0.6-3.3,2-4.8c1.3-1.5,3.4-2.9,6.5-3.6s7.6-0.9,10.9-0.9c1.2,0,5.8,0.1,5.8,0.1v3
			C68.1,91.8,59,96.2,52.5,96.2z"/>
		<g>
			
				<rect x="28.8" y="91.3" transform="matrix(0.3333 -0.9428 0.9428 0.3333 -26.6501 155.6197)" class="st0" width="135.9" height="10.8"/>
		</g>
		<path class="st0" d="M132.1,69.3h-3.4l-25.6,73h11.5l6.7-21h19.3l7.6,21h11.9L132.1,69.3z M124,112.3l6.4-19.1l7.1,19.1H124z"/>
	</g>
</g>
</svg>
